<svg width="30" height="30" viewBox="0 0 30 30" fill="none" xmlns="http://www.w3.org/2000/svg">
<path d="M26.7105 27.1895C22.12 30.9368 7.7863 30.9368 3.28944 27.1895C-1.30109 23.4421 -0.83268 7.42209 3.28944 3.2063C7.41155 -1.00948 22.5884 -1.00948 26.7105 3.2063C30.8326 7.42209 31.301 23.4421 26.7105 27.1895Z" fill="#8DC640"/>
<g opacity="0.2">
<path opacity="0.2" d="M15.0937 20.6316C10.9716 23.9106 6.38104 25.5969 2.07159 25.6905C-1.11371 20.2568 -0.457887 7.04741 3.28949 3.20636C6.66212 -0.259936 17.2484 -0.915754 23.3379 1.23897C24.8368 7.42215 21.7453 15.2916 15.0937 20.6316Z" fill="white"/>
</g>
<path d="M12.8453 23.3484C12.1894 23.3484 11.5337 23.0673 11.1589 22.5053L5.91265 15.76C5.16317 14.8232 5.35057 13.5116 6.2874 12.7621C7.22422 12.0126 8.5358 12.2 9.28528 13.1368L12.8453 17.7274L20.7147 7.51582C21.4642 6.57899 22.7758 6.39159 23.7126 7.14108C24.6495 7.89057 24.8369 9.20214 24.0874 10.139L14.5316 22.5053C14.0632 22.9737 13.5011 23.3484 12.8453 23.3484Z" fill="white"/>
</svg>
