<svg width="23" height="23" viewBox="0 0 23 23" fill="none" xmlns="http://www.w3.org/2000/svg">
<path d="M22.967 8.86118C22.8877 8.61716 22.6769 8.4394 22.4231 8.40257L15.293 7.3664L12.1043 0.905437C11.9907 0.675393 11.7565 0.529846 11.5 0.529846C11.2436 0.529846 11.0093 0.675393 10.8958 0.905437L7.70687 7.36636L0.576933 8.40257C0.32317 8.4394 0.112217 8.61716 0.0330202 8.86109C-0.0462667 9.1051 0.0198581 9.37288 0.203498 9.55185L5.36267 14.5811L4.14493 21.6824C4.10158 21.9353 4.20553 22.1907 4.41303 22.3415C4.62052 22.4922 4.89553 22.5121 5.12266 22.3927L11.5 19.0399L17.8771 22.3927C17.9757 22.4445 18.0833 22.4701 18.1906 22.4701C18.3303 22.4701 18.4694 22.4267 18.5867 22.3415C18.7942 22.1907 18.8982 21.9352 18.8548 21.6824L17.6367 14.5811L22.7964 9.55185C22.9801 9.37283 23.0463 9.10506 22.967 8.86118Z" fill="#FED42D"/>
<path d="M22.967 8.86118C22.8877 8.61716 22.6769 8.43941 22.4231 8.40257L15.293 7.3664L12.1043 0.905437C11.9907 0.675393 11.7565 0.529846 11.5 0.529846V19.0399L17.8772 22.3927C17.9758 22.4446 18.0834 22.4701 18.1907 22.4701C18.3304 22.4701 18.4695 22.4268 18.5868 22.3415C18.7943 22.1907 18.8982 21.9352 18.8549 21.6824L17.6367 14.5811L22.7965 9.55185C22.9801 9.37284 23.0463 9.10506 22.967 8.86118Z" fill="#FCBF29"/>
</svg>
